<svg xmlns="http://www.w3.org/2000/svg" viewBox="120 80 290 345" version="1.1">
	<path d="M 262.500 123.015 C 242.150 139.995, 224.748 153.912, 223.830 153.943 C 220.730 154.048, 204.560 160.143, 196 164.432 C 175.362 174.773, 160.670 186.747, 148.059 203.500 C 142.201 211.284, 132.069 228, 133.211 228 C 133.426 228, 138.079 226.251, 143.551 224.112 C 149.023 221.974, 153.620 220.332, 153.767 220.463 C 153.914 220.594, 152.500 223.249, 150.624 226.364 C 145.978 234.079, 141.501 245.519, 138.439 257.500 L 135.884 267.500 135.430 280.500 L 134.976 293.500 136.896 284.785 C 139.292 273.910, 141.391 267.511, 145.609 258.219 C 153.626 240.560, 169.265 221.776, 185.661 210.114 L 194.256 204 180.378 203.957 L 166.500 203.914 173.301 197.515 C 181.890 189.435, 194.059 181.233, 205 176.151 C 213.993 171.973, 224.649 168.315, 225.461 169.127 C 225.728 169.394, 225.475 171.317, 224.900 173.400 C 224.325 175.483, 224 177.313, 224.177 177.466 C 224.355 177.619, 237.692 166.506, 253.815 152.771 C 269.939 139.036, 283.379 128.046, 283.683 128.350 C 283.987 128.654, 283.002 137.065, 281.494 147.041 L 278.751 165.180 280.126 166.427 C 280.882 167.112, 292.152 177.199, 305.171 188.841 L 328.842 210.008 329.430 216.254 C 329.754 219.689, 330.127 224.491, 330.260 226.924 L 330.500 231.348 353.724 247.424 C 367.146 256.716, 376.958 264.164, 376.974 265.073 C 377.002 266.766, 361.916 281.951, 358.324 283.844 L 356.148 284.991 319.433 279.470 C 299.240 276.433, 282.602 274.072, 282.460 274.224 C 282.318 274.376, 282.629 276.975, 283.150 280 C 284.278 286.534, 285.747 327.395, 284.937 329.689 C 284.544 330.802, 282.848 328.900, 279.319 323.392 C 268.504 306.508, 262.860 292.501, 260.931 277.761 L 259.667 268.099 260.815 258.762 C 261.446 253.627, 262.823 246.816, 263.875 243.627 L 265.788 237.829 262.811 240.665 C 258.028 245.220, 250.441 257.261, 248.017 264.142 C 246.429 268.647, 245.629 273.712, 245.271 281.519 L 244.766 292.538 246.388 299.019 C 248.508 307.489, 253.875 318.273, 264.542 335.500 C 280.400 361.110, 286.445 374.429, 289.732 391 L 290.624 395.500 293.712 386 C 295.411 380.775, 297.629 372, 298.642 366.500 L 300.484 356.500 300.492 324.250 C 300.496 306.512, 300.801 292, 301.169 292 C 301.792 292, 352.778 299.524, 357.758 300.351 C 361.398 300.955, 372.433 291.872, 385.917 277.173 C 392.630 269.854, 397.947 263.334, 397.732 262.683 C 397.518 262.032, 385.903 253.296, 371.921 243.269 C 357.940 233.243, 345.944 224.018, 345.265 222.769 C 344.583 221.516, 344.023 216.938, 344.015 212.546 L 344 204.591 336.721 197.546 C 332.717 193.671, 322.017 183.285, 312.942 174.466 L 296.444 158.433 298.134 131.966 C 299.064 117.410, 300.063 102.463, 300.354 98.750 C 300.645 95.037, 300.572 92.032, 300.192 92.072 C 299.811 92.111, 282.850 106.035, 262.500 123.015 M 311.500 120.653 C 307.650 123.658, 304.409 126.428, 304.298 126.808 C 304.186 127.189, 303.631 134.008, 303.064 141.962 L 302.032 156.424 304.703 159.212 C 307.685 162.325, 309 162.725, 309 160.521 C 309 159.707, 311.277 149.550, 314.059 137.948 C 316.842 126.347, 318.979 116.480, 318.809 116.023 C 318.639 115.565, 315.350 117.649, 311.500 120.653 M 240 196.666 C 216.967 200.294, 199.533 209.017, 184.500 224.436 C 172.104 237.151, 163.955 252.562, 160.450 269.919 L 158.751 278.337 159.281 291.419 C 159.886 306.343, 161.703 313.706, 168.063 327 C 174.431 340.311, 184.127 351.882, 197.420 362.034 C 198.476 362.840, 196.345 359.783, 192.683 355.241 C 184.806 345.467, 177.064 330.149, 173.861 318 L 171.621 309.500 171.621 295 L 171.621 280.500 173.888 272 C 178.538 254.567, 188.428 237.711, 201.274 225.323 C 216.225 210.906, 233.591 201.982, 256 197.200 L 260.500 196.240 251.500 196.256 C 246.550 196.265, 241.375 196.450, 240 196.666 M 291 210.445 C 291 210.809, 293.505 214.207, 296.567 217.996 L 302.133 224.886 307.817 225.992 C 310.942 226.601, 314.738 227.337, 316.250 227.629 C 317.762 227.920, 319 227.887, 319 227.554 C 319 227.222, 317.447 223.866, 315.549 220.097 L 312.098 213.244 303.799 212.054 C 299.235 211.400, 294.488 210.621, 293.250 210.324 C 292.012 210.026, 291 210.081, 291 210.445 M 203.493 249.250 C 198.105 255.503, 192.183 265.898, 189.321 274.128 C 184.683 287.462, 184.599 303.965, 189.094 318.615 C 192.139 328.539, 200.945 345.164, 208.367 355 C 217.072 366.537, 229.471 379.614, 241.515 389.960 C 253.142 399.949, 264.831 408.502, 265.686 407.647 C 266.798 406.536, 263.893 385.790, 261.063 374.625 C 256.193 355.417, 247.029 333.273, 235.900 313.825 C 232.433 307.767, 230.474 305.215, 229.992 306.131 C 229.596 306.884, 228.482 313.800, 227.518 321.500 C 226.553 329.200, 225.397 335.898, 224.948 336.384 C 224.496 336.874, 221.790 334.866, 218.884 331.884 C 206.946 319.634, 199.599 303.831, 198.399 287.818 C 197.585 276.967, 199.978 263.056, 204.431 252.750 C 206.273 248.488, 207.639 245, 207.468 245 C 207.296 245, 205.508 246.912, 203.493 249.250" stroke="none" fill="#FFFDF7" fill-rule="evenodd"/>
</svg>
